<svg width="22" height="22" viewBox="0 0 22 22" fill="none" xmlns="http://www.w3.org/2000/svg">
<path fill-rule="evenodd" clip-rule="evenodd" d="M2.56022 1.63C2.56022 1.21579 2.89601 0.880005 3.31022 0.880005H4.82227H6.25022C6.66444 0.880005 7.00022 1.21579 7.00022 1.63C7.00022 2.04422 6.66444 2.38 6.25022 2.38H5.57227V3.52H10.3722V2.38H9.61018C9.19596 2.38 8.86018 2.04422 8.86018 1.63C8.86018 1.21579 9.19596 0.880005 9.61018 0.880005H11.1222H12.5502C12.9644 0.880005 13.3002 1.21579 13.3002 1.63C13.3002 2.04422 12.9644 2.38 12.5502 2.38H11.8722V3.52H16.6722V2.38H15.9101C15.4959 2.38 15.1601 2.04422 15.1601 1.63C15.1601 1.21579 15.4959 0.880005 15.9101 0.880005H17.4222H18.8501C19.2643 0.880005 19.6001 1.21579 19.6001 1.63C19.6001 2.04422 19.2643 2.38 18.8501 2.38H18.1722V3.52H19.0002C20.657 3.52 22.0002 4.86315 22.0002 6.52V14.8C22.0002 16.4569 20.657 17.8 19.0002 17.8H3.16015C1.5033 17.8 0.160156 16.4569 0.160156 14.8V6.52001C0.160156 4.86315 1.5033 3.52 3.16016 3.52H4.07227L4.07227 2.38H3.31022C2.89601 2.38 2.56022 2.04422 2.56022 1.63ZM6.04016 18.64H2.68016V20.9C2.68016 21.5075 3.17264 22 3.78016 22H4.94016C5.54767 22 6.04016 21.5075 6.04016 20.9V18.64ZM16.1202 18.64H19.4802V20.9C19.4802 21.5075 18.9877 22 18.3802 22H17.2202C16.6126 22 16.1202 21.5075 16.1202 20.9V18.64Z" fill="white"/>
</svg>
