<svg width="39" height="34" viewBox="0 0 39 34" fill="none" xmlns="http://www.w3.org/2000/svg">
<path fill-rule="evenodd" clip-rule="evenodd" d="M20 7.5C20 11.6421 16.6421 15 12.5 15C8.35785 15 4.99999 11.6421 4.99999 7.5C4.99999 3.35786 8.35785 0 12.5 0C16.6421 0 20 3.35786 20 7.5ZM6.63211 15C4.80565 15.8559 1.98147 19.4247 1.02054 23C0 26.7971 0 28.144 0 28.9999V29C0 31 1.02063 33.5 4.59119 33.5H12.2437H12.7538H20.4079C23.9792 33.5 25 31 25 29V28.9999C25 28.144 25 26.7971 23.9793 23C23.0181 19.4247 20.1934 15.8559 18.3666 15C16.8382 16.9692 14.4886 17.4604 12.4988 17.4976C10.5093 17.4604 8.16027 16.9692 6.63211 15ZM23 7.5C23 9.46908 22.2412 11.2609 21 12.5991C22.3697 14.0758 24.3269 15 26.5 15C30.6421 15 34 11.6421 34 7.5C34 3.35786 30.6421 0 26.5 0C24.3269 0 22.3697 0.924178 21 2.40093C22.2412 3.73907 23 5.53092 23 7.5ZM26.2437 33.5H23.4079C26.9792 33.5 28 30.9999 28 28.9999C28 28.144 28 26.7971 26.9793 23C26.3974 20.8355 25.1326 18.6735 23.8196 17.1143C24.7165 17.3812 25.6411 17.4816 26.4988 17.4976C28.4887 17.4604 30.8382 16.9692 32.3666 15C34.1935 15.8559 37.0182 19.4247 37.9793 23C39 26.7971 39 28.1441 39 29C39 31 37.9792 33.5 34.4079 33.5H26.7538H26.2437Z" fill="white"/>
</svg>
